<svg width="117" height="48" viewBox="0 0 117 48" fill="none" xmlns="http://www.w3.org/2000/svg">
<path d="M30.7715 15.985C30.5425 16.2657 30.2668 16.5052 29.9565 16.693C29.6381 16.8857 29.2719 16.9857 28.8994 16.982C28.1569 16.982 27.5594 16.7436 27.1069 16.2668C26.6545 15.79 26.4287 15.1764 26.4297 14.426V12.0781H27.6406V14.4896C27.6406 14.9308 27.7643 15.2549 28.0118 15.462C28.2695 15.675 28.5966 15.7866 28.9313 15.7755C29.0949 15.7781 29.2572 15.7457 29.4072 15.6807C29.5573 15.6156 29.6917 15.5194 29.8014 15.3984C30.0353 15.1539 30.1629 14.8273 30.1567 14.4896V12.4668H31.3342V14.4896C31.3314 14.6574 31.3621 14.8242 31.4243 14.9801C31.4865 15.1361 31.5791 15.2783 31.6968 15.3984C31.8086 15.5194 31.9449 15.6155 32.0965 15.6805C32.2482 15.7454 32.4119 15.7778 32.577 15.7755C32.9117 15.7866 33.2388 15.675 33.4964 15.462C33.7439 15.2539 33.8677 14.9298 33.8677 14.4896V12.0781H35.0786V14.426C35.0914 14.7648 35.035 15.1026 34.9128 15.419C34.7907 15.7355 34.6053 16.0239 34.368 16.2668C34.14 16.5002 33.866 16.6842 33.5634 16.8072C33.2607 16.9303 32.9358 16.9898 32.6089 16.982C32.2341 16.9854 31.8657 16.8854 31.5445 16.693C31.2388 16.5151 30.9752 16.2736 30.7715 15.985Z" fill="#00A77D"/>
<path d="M17.8765 30.7766C16.4553 30.7766 15.2638 30.5969 14.3018 30.2376C13.4263 29.937 12.6322 29.4391 11.9815 28.7827C11.4086 28.1853 10.9757 27.4688 10.714 26.6847C10.4513 25.8993 10.318 25.0766 10.3196 24.2487C10.3145 23.3814 10.4959 22.5232 10.8518 21.7317C11.3831 20.539 12.2527 19.5269 13.3536 18.82C14.4545 18.113 15.7387 17.742 17.0484 17.7526C17.8441 17.7405 18.6337 17.891 19.3687 18.1947C20.0363 18.4706 20.6371 18.8851 21.1312 19.4105C21.6253 19.936 22.0014 20.5603 22.2343 21.2419C22.5007 22.0069 22.6332 22.8119 22.6258 23.6216V27.2872H26.4181C26.5298 27.2762 26.6426 27.2924 26.7467 27.3345C26.8508 27.3765 26.943 27.4431 27.0156 27.5285C27.1363 27.6967 27.1985 27.8997 27.1925 28.1065V29.9458C27.1816 30.1402 27.1146 30.3273 26.9996 30.4847C26.938 30.581 26.8518 30.6593 26.7499 30.7116C26.648 30.7638 26.534 30.7883 26.4195 30.7824H22.6258C22.5628 31.8796 22.3234 32.9597 21.9167 33.9813C21.5052 35.012 20.8841 35.9467 20.0924 36.7265C19.234 37.5649 18.2197 38.2284 17.1065 38.68C15.9231 39.178 14.5213 39.4275 12.9009 39.4284C11.1607 39.4284 9.68152 39.1977 8.46337 38.7363C7.24521 38.2749 6.25232 37.6777 5.48469 36.9447C4.7514 36.2614 4.17635 35.4272 3.79957 34.5C3.45405 33.6545 3.27295 32.7514 3.26591 31.8385C3.25957 30.9933 3.35994 30.1506 3.56464 29.3303C3.73588 28.6429 3.95144 27.9672 4.20998 27.3075C4.38718 26.8437 4.60608 26.3969 4.86401 25.9724C4.95143 25.8152 5.05442 25.6671 5.17145 25.5303L7.96305 27.0257C7.72542 27.4212 7.50951 27.8293 7.31627 28.2481C7.17125 28.6338 7.02623 29.0543 6.88121 29.5094C6.7419 29.9888 6.67207 30.4856 6.67384 30.9846C6.66923 31.646 6.79486 32.3018 7.04363 32.915C7.29486 33.519 7.68476 34.056 8.18203 34.4827C8.76501 34.9663 9.4404 35.3271 10.1673 35.5432C11.1168 35.8255 12.1046 35.9586 13.0953 35.9376C14.1935 35.9376 15.127 35.7874 15.8956 35.4868C16.594 35.2324 17.2316 34.8358 17.7677 34.3223C18.2386 33.8561 18.6023 33.2936 18.8336 32.6737C19.0617 32.0651 19.1948 31.4253 19.2281 30.7766H17.8765ZM12.8574 14.1505C12.8534 13.9211 12.8972 13.6934 12.986 13.4817C13.0749 13.2701 13.2069 13.0791 13.3737 12.9209C13.7232 12.5938 14.1848 12.4117 14.6643 12.4117C15.1439 12.4117 15.6054 12.5938 15.955 12.9209C16.119 13.0822 16.2492 13.2743 16.3381 13.4862C16.4269 13.698 16.4727 13.9253 16.4727 14.1549C16.4727 14.3844 16.4269 14.6117 16.3381 14.8235C16.2492 15.0354 16.119 15.2275 15.955 15.3888C15.6023 15.7096 15.1419 15.8875 14.6643 15.8875C14.1867 15.8875 13.7264 15.7096 13.3737 15.3888C13.2055 15.2298 13.0727 15.0375 12.9837 14.8242C12.8948 14.6109 12.8518 14.3814 12.8574 14.1505ZM19.1454 27.2872V23.4439C19.1517 22.8299 18.9206 22.237 18.5001 21.7881C18.0689 21.3171 17.4608 21.0811 16.6757 21.0801C16.3159 21.0815 15.9598 21.1526 15.6273 21.2896C15.2785 21.4315 14.9605 21.639 14.6905 21.9008C14.4039 22.1784 14.174 22.5086 14.0132 22.8732C13.8334 23.292 13.7454 23.7442 13.7551 24.1996C13.7389 24.6567 13.8348 25.1108 14.0344 25.5227C14.234 25.9345 14.5314 26.2917 14.9007 26.5634C15.2614 26.8228 15.67 27.0089 16.1029 27.111C16.5859 27.23 17.0817 27.2892 17.5792 27.2872H19.1454ZM17.5502 14.1505C17.5462 13.9218 17.5893 13.6947 17.6768 13.4832C17.7644 13.2717 17.8945 13.0803 18.0592 12.9209C18.2302 12.7516 18.4343 12.6192 18.6588 12.532C18.8834 12.4447 19.1235 12.4045 19.3644 12.4138C19.605 12.4064 19.8446 12.4476 20.0689 12.5347C20.2932 12.6219 20.4975 12.7532 20.6696 12.9209C20.8335 13.0822 20.9637 13.2743 21.0526 13.4862C21.1415 13.698 21.1872 13.9253 21.1872 14.1549C21.1872 14.3844 21.1415 14.6117 21.0526 14.8235C20.9637 15.0354 20.8335 15.2275 20.6696 15.3888C20.4962 15.5542 20.2915 15.6835 20.0674 15.7691C19.8433 15.8547 19.6043 15.8948 19.3644 15.8872C19.1243 15.8967 18.8847 15.8575 18.6603 15.7718C18.436 15.6861 18.2314 15.5557 18.0592 15.3888C17.8932 15.2286 17.7622 15.0359 17.6746 14.8228C17.587 14.6096 17.5446 14.3807 17.5502 14.1505Z" fill="#00A77D"/>
<path d="M26.4282 30.7766C26.1169 30.7766 25.8994 30.6961 25.7756 30.5353C25.6556 30.3844 25.5902 30.1975 25.59 30.005V28.2192C25.5935 27.9935 25.667 27.7745 25.8003 27.5921C25.8699 27.4918 25.9642 27.4111 26.0742 27.3577C26.1842 27.3043 26.3061 27.28 26.4282 27.2872H31.4314C31.7552 27.2872 31.9786 27.3676 32.1013 27.5285C32.2267 27.6949 32.2921 27.8985 32.287 28.1065V29.9458C32.2751 30.1414 32.205 30.3291 32.0854 30.4847C32.0165 30.5835 31.9232 30.6628 31.8144 30.715C31.7056 30.7671 31.5852 30.7903 31.4647 30.7823L26.4282 30.7766Z" fill="#00A77D"/>
<path d="M31.2866 30.7766C30.9753 30.7766 30.7577 30.6961 30.634 30.5353C30.5134 30.3847 30.4479 30.1976 30.4484 30.005V28.2191C30.452 27.9938 30.5249 27.7749 30.6572 27.5921C30.7271 27.4918 30.8217 27.4111 30.9319 27.3577C31.0421 27.3043 31.1642 27.28 31.2866 27.2872H36.2897C36.6136 27.2872 36.8369 27.3676 36.9597 27.5285C37.0851 27.6949 37.1504 27.8985 37.1453 28.1064V29.9458C37.1328 30.1412 37.0627 30.3287 36.9437 30.4847C36.8746 30.5836 36.781 30.663 36.672 30.7151C36.563 30.7673 36.4423 30.7905 36.3216 30.7823L31.2866 30.7766Z" fill="#00A77D"/>
<path d="M36.0794 30.7766C35.9691 30.786 35.8581 30.769 35.7557 30.727C35.6533 30.685 35.5624 30.6193 35.4906 30.5353C35.3706 30.3844 35.3052 30.1976 35.305 30.0051V28.2192C35.3079 27.9949 35.3781 27.7765 35.5066 27.5922C35.5668 27.4957 35.6515 27.4168 35.752 27.3633C35.8526 27.3098 35.9655 27.2836 36.0794 27.2873H40.211V18.8464H43.6537V30.7766H36.0794ZM37.3556 14.1506C37.3512 13.9219 37.3941 13.6948 37.4814 13.4834C37.5687 13.2719 37.6986 13.0805 37.8631 12.921C38.2149 12.5949 38.6776 12.4136 39.1581 12.4136C39.6386 12.4136 40.1013 12.5949 40.4531 12.921C40.6171 13.0823 40.7473 13.2744 40.8362 13.4862C40.9251 13.698 40.9708 13.9253 40.9708 14.1549C40.9708 14.3845 40.9251 14.6118 40.8362 14.8236C40.7473 15.0354 40.6171 15.2275 40.4531 15.3888C40.0987 15.7097 39.637 15.8874 39.1581 15.8874C38.6793 15.8874 38.2176 15.7097 37.8631 15.3888C37.6972 15.2286 37.5665 15.0358 37.4791 14.8227C37.3918 14.6096 37.3497 14.3807 37.3556 14.1506ZM39.6758 10.2754C39.6726 10.049 39.7178 9.82446 39.8083 9.61671C39.8988 9.40897 40.0326 9.22275 40.2008 9.07043C40.3734 8.90603 40.5769 8.77733 40.7997 8.69177C41.0225 8.60621 41.2601 8.56549 41.4987 8.57195C41.9825 8.56125 42.4512 8.74025 42.8039 9.07043C42.976 9.22045 43.1135 9.40585 43.2069 9.61387C43.3003 9.82189 43.3473 10.0476 43.3448 10.2754C43.3507 10.511 43.3054 10.745 43.2121 10.9615C43.1187 11.178 42.9795 11.3718 42.8039 11.5296C42.4512 11.8598 41.9825 12.0388 41.4987 12.0281C41.2601 12.0345 41.0225 11.9938 40.7997 11.9083C40.5769 11.8227 40.3734 11.694 40.2008 11.5296C40.0298 11.3692 39.8948 11.1745 39.8048 10.9583C39.7148 10.7421 39.6719 10.5094 39.6787 10.2754H39.6758ZM42.0585 14.1506C42.0542 13.9219 42.097 13.6948 42.1843 13.4834C42.2716 13.2719 42.4015 13.0805 42.5661 12.921C42.9196 12.5949 43.3836 12.4138 43.8654 12.4138C44.3472 12.4138 44.8112 12.5949 45.1648 12.921C45.491 13.2494 45.674 13.6928 45.674 14.1549C45.674 14.617 45.491 15.0604 45.1648 15.3888C44.8086 15.7097 44.3456 15.8873 43.8654 15.8873C43.3853 15.8873 42.9222 15.7097 42.5661 15.3888C42.4002 15.2286 42.2694 15.0358 42.1821 14.8227C42.0947 14.6096 42.0526 14.3807 42.0585 14.1506Z" fill="#00A77D"/>
<path d="M54.8201 30.7766C53.572 30.7766 52.523 30.5998 51.6732 30.2463C50.8922 29.9388 50.1855 29.4701 49.5995 28.8708C49.0753 28.3205 48.6792 27.6619 48.4393 26.9419C48.1973 26.2342 48.0724 25.4919 48.0695 24.7443C48.0646 23.829 48.2207 22.9199 48.5307 22.0582C48.821 21.2382 49.2638 20.4799 49.8358 19.823C50.3994 19.1819 51.0909 18.6647 51.8661 18.3045C52.6741 17.9296 53.5562 17.74 54.4474 17.7497C55.2679 17.7382 56.0826 17.8885 56.8446 18.1918C57.5326 18.4686 58.1539 18.8877 58.6674 19.4214C59.1808 19.9649 59.5758 20.6084 59.8276 21.3113C60.1034 22.0882 60.2399 22.9074 60.2307 23.7314V30.3229C60.2307 31.5751 60.0427 32.6496 59.6666 33.5464C59.3272 34.3946 58.7737 35.1411 58.0598 35.7137C57.3293 36.2793 56.4903 36.6899 55.5945 36.9201C54.5697 37.1864 53.5139 37.3161 52.4549 37.3059C52.0198 37.3059 51.5572 37.2915 51.0511 37.2654C50.545 37.2394 49.9751 37.1773 49.3399 37.0805L49.5835 33.7198C50.1742 33.7949 50.7335 33.8541 51.2614 33.8975C51.7892 33.9408 52.2354 33.962 52.5999 33.961C53.134 33.9634 53.6674 33.9233 54.1951 33.8411C54.662 33.77 55.1112 33.6116 55.5191 33.3744C55.9086 33.1414 56.2308 32.8119 56.4545 32.4179C56.6904 32.0105 56.8305 31.4638 56.875 30.778L54.8201 30.7766ZM56.8373 27.2872V24.6185C56.8373 23.481 56.6116 22.6073 56.1601 21.9976C55.9465 21.7013 55.6625 21.4624 55.3334 21.3022C55.0044 21.1421 54.6407 21.0658 54.2748 21.0801C53.9184 21.0802 53.5662 21.1571 53.2423 21.3055C52.9035 21.4592 52.5965 21.6748 52.3374 21.9412C52.0636 22.2227 51.8448 22.5524 51.6921 22.9136C51.5246 23.3214 51.4422 23.759 51.4499 24.1995C51.4349 24.6946 51.5258 25.1871 51.7167 25.6444C51.8782 26.0164 52.1269 26.3444 52.4418 26.6009C52.7546 26.8515 53.1175 27.0328 53.5062 27.1326C53.9093 27.2395 54.3247 27.2934 54.7418 27.293L56.8373 27.2872Z" fill="#00A77D"/>
<path d="M79.1772 38.9679H79.1148C78.8371 38.9592 78.5642 38.8941 78.3128 38.7763C78.0614 38.6586 77.8369 38.4908 77.653 38.2834L70.7058 30.4229C70.3495 30.0191 70.1688 29.4908 70.2034 28.9543C70.2381 28.4177 70.4852 27.9168 70.8905 27.5618C71.2958 27.2068 71.826 27.0268 72.3646 27.0613C72.9031 27.0958 73.4059 27.342 73.7622 27.7458L79.2716 33.9831L104.399 8.87785C104.587 8.68956 104.811 8.54009 105.058 8.43798C105.304 8.33588 105.568 8.28313 105.835 8.28276C106.102 8.28239 106.366 8.33441 106.613 8.43583C106.86 8.53726 107.084 8.68611 107.273 8.87388C107.462 9.06166 107.612 9.28468 107.715 9.53023C107.817 9.77577 107.87 10.039 107.87 10.3049C107.871 10.5709 107.819 10.8343 107.717 11.0801C107.615 11.3259 107.466 11.5493 107.277 11.7376L80.6164 38.3734C80.4275 38.562 80.2032 38.7115 79.9563 38.8135C79.7093 38.9155 79.4446 38.968 79.1772 38.9679Z" fill="#00A77D"/>
<path d="M80.2547 26.4602C79.8528 26.4607 79.4598 26.3424 79.1255 26.1203C78.7911 25.8982 78.5303 25.5823 78.3761 25.2126C78.2219 24.8429 78.1813 24.4359 78.2592 24.0431C78.3372 23.6503 78.5303 23.2894 78.8142 23.006L97.7689 4.04663C97.9562 3.85352 98.1802 3.69945 98.4279 3.59338C98.6755 3.48732 98.9418 3.43137 99.2114 3.4288C99.4809 3.42624 99.7483 3.4771 99.9979 3.57843C100.248 3.67976 100.474 3.82954 100.665 4.01905C100.856 4.20856 101.008 4.43401 101.11 4.68231C101.213 4.9306 101.265 5.19677 101.264 5.46533C101.262 5.7339 101.207 5.99949 101.102 6.24666C100.997 6.49383 100.843 6.71765 100.65 6.9051L81.6951 25.8644C81.5064 26.0536 81.282 26.2037 81.0347 26.3059C80.7875 26.4082 80.5224 26.4606 80.2547 26.4602Z" fill="#00B789"/>
<path d="M102.284 28.106C101.883 28.1068 101.49 27.9889 101.155 27.7672C100.821 27.5454 100.56 27.2298 100.406 26.8603C100.251 26.4908 100.21 26.084 100.288 25.6913C100.366 25.2987 100.559 24.9378 100.843 24.6544L110.315 15.1416C110.694 14.7607 111.211 14.5456 111.75 14.5439C112.289 14.5422 112.806 14.7538 113.189 15.1324C113.571 15.5109 113.787 16.0253 113.789 16.5623C113.791 17.0994 113.578 17.6151 113.198 17.9961L103.722 27.5089C103.534 27.698 103.31 27.848 103.063 27.9505C102.816 28.053 102.552 28.1058 102.284 28.106Z" fill="#00B789"/>
<path d="M105.763 35.482C105.363 35.4944 104.968 35.3887 104.628 35.1782C104.287 34.9677 104.017 34.6617 103.851 34.2986C103.684 33.9355 103.629 33.5316 103.692 33.1374C103.756 32.7433 103.934 32.3766 104.206 32.0833L109.584 26.2764C109.949 25.8817 110.457 25.6478 110.996 25.6262C111.534 25.6046 112.059 25.797 112.456 26.1612C112.852 26.5253 113.086 27.0313 113.108 27.5679C113.13 28.1044 112.937 28.6276 112.571 29.0223L107.195 34.8306C107.011 35.0284 106.791 35.188 106.545 35.2998C106.299 35.4116 106.033 35.4736 105.763 35.482Z" fill="#00B789"/>
<path d="M95.8822 44.5712C95.482 44.5635 95.0929 44.4383 94.7638 44.2113C94.4347 43.9842 94.1802 43.6654 94.0322 43.2948C93.8842 42.9243 93.8492 42.5184 93.9318 42.1281C94.0143 41.7379 94.2107 41.3806 94.4962 41.101L98.7964 36.9384C98.986 36.7483 99.2117 36.5975 99.4603 36.4949C99.7089 36.3923 99.9754 36.3399 100.244 36.3407C100.514 36.3415 100.78 36.3955 101.028 36.4996C101.276 36.6036 101.5 36.7557 101.689 36.947C101.878 37.1382 102.026 37.3649 102.126 37.6138C102.226 37.8627 102.275 38.1288 102.271 38.3969C102.267 38.665 102.21 38.9295 102.102 39.1753C101.995 39.4211 101.84 39.6432 101.645 39.8287L97.3439 43.9913C97.1514 44.1801 96.9229 44.3287 96.6719 44.4283C96.4208 44.5279 96.1523 44.5765 95.8822 44.5712Z" fill="#00B789"/>
<path d="M84.862 44.3671C84.4597 44.3677 84.0664 44.2494 83.7316 44.0272C83.3969 43.805 83.1358 43.4889 82.9815 43.1188C82.8271 42.7487 82.7864 42.3413 82.8645 41.9482C82.9426 41.5551 83.136 41.1939 83.4202 40.9103L95.3506 28.9521C95.7305 28.5711 96.2468 28.3561 96.7858 28.3544C97.3248 28.3526 97.8425 28.5643 98.2249 28.9428C98.6073 29.3214 98.8231 29.8357 98.8248 30.3728C98.8266 30.9098 98.6141 31.4256 98.2342 31.8066L86.3024 43.77C86.1139 43.9595 85.8895 44.1099 85.6422 44.2124C85.395 44.3148 85.1298 44.3675 84.862 44.3671Z" fill="#00B789"/>
</svg>
